<?xml version="1.0" standalone="no"?>
<!DOCTYPE svg PUBLIC "-//W3C//DTD SVG 20010904//EN"
 "http://www.w3.org/TR/2001/REC-SVG-20010904/DTD/svg10.dtd">
<svg version="1.0" xmlns="http://www.w3.org/2000/svg"
 width="200.000000pt" height="200.000000pt" viewBox="0 0 200.000000 200.000000"
 preserveAspectRatio="xMidYMid meet">

<g transform="translate(0.000000,200.000000) scale(0.100000,-0.100000)"
fill="#000000" stroke="none">
<path d="M0 1000 l0 -1000 1000 0 1000 0 0 1000 0 1000 -1000 0 -1000 0 0
-1000z m1132 585 c94 -20 184 -50 276 -91 l72 -33 0 -327 0 -327 -27 -46 c-43
-74 -108 -155 -172 -213 -59 -53 -107 -86 -115 -77 -8 10 -156 285 -156 291 0
4 16 12 35 18 53 17 129 92 155 152 35 80 40 216 10 308 -39 120 -120 193
-255 227 -57 14 -111 17 -287 17 -120 -1 -218 1 -218 3 0 15 195 80 293 98
101 18 300 18 389 0z m-254 -348 c68 -37 90 -152 44 -230 -33 -57 -78 -71
-249 -75 l-153 -4 0 167 0 167 163 -4 c133 -3 168 -6 195 -21z m-92 -668 c41
-83 74 -153 72 -155 -9 -8 -109 47 -174 97 -128 97 -164 135 -164 174 l0 35
95 0 95 0 76 -151z"/>
</g>
</svg>
